<?xml version="1.0" encoding="utf-8"?>
<!-- Generator: Adobe Illustrator 21.0.2, SVG Export Plug-In . SVG Version: 6.00 Build 0)  -->
<svg version="1.1" id="Layer_1" xmlns="http://www.w3.org/2000/svg" xmlns:xlink="http://www.w3.org/1999/xlink" x="0px" y="0px"
	 viewBox="0 0 85 85.2" style="enable-background:new 0 0 85 85.2;" xml:space="preserve">
<style type="text/css">
	.st0{clip-path:url(#SVGID_2_);fill:#C0C0C0;}
</style>
<g>
	<defs>
		<rect id="SVGID_1_" y="0" width="85" height="85.2"/>
	</defs>
	<clipPath id="SVGID_2_">
		<use xlink:href="#SVGID_1_"  style="overflow:visible;"/>
	</clipPath>
	<path class="st0" d="M56.3,33.7c-3.1,0-5.5,2.4-5.5,5.5v45.2c1.4-0.3,3-0.6,4.4-1.2V50.9c0-4.8,3.8-8.6,8.6-8.6h7
		c0.6-2,2.5-3.3,4.7-3.3c2.8,0,5,2.2,5,5c0,2.8-2.2,4.9-5,4.9c-2.2,0-4.1-1.5-4.8-3.5h-7c-3.1,0-5.4,2.4-5.4,5.5v31.3
		C73.9,75.8,85,60.5,85,42.6c0-3.1-0.3-6-1-8.9H56.3 M77.6,43.9c0,1.2-1,2.1-2.1,2.1c-1.2,0-2.1-1-2.1-2.1s0.9-2.1,2.1-2.1
		C76.7,41.7,77.6,42.7,77.6,43.9z M13.9,51.8c0,1.2-1,2.1-2.1,2.1c-1.2,0-2.1-1-2.1-2.1s1-2.1,2.1-2.1C13,49.6,13.9,50.6,13.9,51.8z
		 M13.9,31.1c0,1.2-1,2.1-2.1,2.1c-1.2,0-2.1-1-2.1-2.1c0-1.2,1-2.1,2.1-2.1C13,29,13.9,29.9,13.9,31.1z M63.5,21.5
		c0,1.2-1,2.1-2.1,2.1c-1.2,0-2.1-1-2.1-2.1c0-1.2,1-2.1,2.1-2.1C62.6,19.4,63.5,20.3,63.5,21.5z M33.1,58.9c0-3.1-2.5-5.6-5.6-5.6
		H16.6c-0.6,2-2.5,3.4-4.7,3.4c-2.8,0-5-2.2-5-4.9c0-2.8,2.2-5,5-5c2.2,0,4,1.4,4.7,3.4h11c4.8,0,8.7,3.9,8.7,8.7v25.9
		c1.3,0.2,2.7,0.3,4.1,0.4V28.9c0-4.8,3.8-8.7,8.6-8.7h7.6c0.5-2,2.5-3.6,4.8-3.6c2.8,0,5,2.2,5,5c0,2.8-2.2,4.9-5,4.9
		c-2.1,0-3.9-1.3-4.6-3.2h-7.8c-3.1,0-5.5,2.6-5.5,5.6v56.3c1.4,0,2.9-0.1,4.2-0.3V39.2c0-4.8,3.8-8.6,8.6-8.6h26.9
		C78.1,13,61.8,0,42.5,0c-2.1,0-4.2,0.2-6.3,0.5v23.5c0,4.8-3.9,8.6-8.7,8.6h-11c-0.6,1.8-2.5,3.3-4.7,3.3c-2.8,0-5-2.2-5-5
		c0-2.8,2.2-5,5-5c2.2,0,4.1,1.4,4.8,3.5h11c3.1,0,5.6-2.4,5.6-5.5V1.1C14.1,5.3,0,22.4,0,42.6s14.1,37.3,33.1,41.5V58.9z"/>
</g>
</svg>
